<?xml version="1.0" encoding="utf-8"?>
<!-- Generator: Adobe Illustrator 26.3.1, SVG Export Plug-In . SVG Version: 6.00 Build 0)  -->
<svg version="1.1" id="Layer_1" xmlns="http://www.w3.org/2000/svg" xmlns:xlink="http://www.w3.org/1999/xlink" x="0px" y="0px"
	 viewBox="0 0 337 127.9" style="enable-background:new 0 0 337 127.9;" xml:space="preserve">
<style type="text/css">
	.st0{fill:none;}
	.st1{fill:#7698A3;}
	.st2{fill:#0B485B;}
	.st3{fill:#E69770;}
	.st4{fill:#D24600;}
</style>
<g>
	<rect class="st0" width="337" height="127.9"/>
	<g>
		<g>
			<polygon class="st1" points="88.4,89.9 55.1,104.3 21.8,89.9 55.1,75.4 			"/>
			<polygon class="st2" points="55.1,58.5 55.1,104.3 21.8,89.9 21.8,44 			"/>
			<polygon class="st3" points="63.5,69.5 63.5,23.6 96.8,38.1 96.8,83.9 			"/>
			<polygon class="st4" points="30.1,38.1 63.5,23.6 96.8,38.1 63.5,52.5 			"/>
		</g>
		<g>
			<g>
				<path class="st2" d="M162.2,75.2v12.4h-43.5v-9.7l21.8-25.1h-21.2V40.4h42v9.7l-21.8,25.1H162.2z"/>
				<path class="st2" d="M179,85.2c-4.1-2.1-7.2-5-9.5-8.7c-2.3-3.7-3.4-7.9-3.4-12.6c0-4.6,1.1-8.8,3.4-12.5
					c2.3-3.7,5.5-6.6,9.5-8.7c4-2.1,8.6-3.1,13.7-3.1c5.1,0,9.7,1,13.7,3.1c4.1,2.1,7.2,4.9,9.5,8.6c2.3,3.7,3.4,7.9,3.4,12.6
					c0,4.7-1.1,8.9-3.4,12.6c-2.3,3.7-5.4,6.6-9.5,8.7c-4.1,2.1-8.6,3.1-13.7,3.1C187.6,88.4,183,87.3,179,85.2z M199.8,72.2
					c1.9-2,2.8-4.8,2.8-8.3c0-3.5-0.9-6.2-2.8-8.2c-1.9-2-4.2-3-7.1-3c-2.9,0-5.3,1-7.1,3c-1.9,2-2.8,4.7-2.8,8.2
					c0,3.5,0.9,6.3,2.8,8.3c1.9,2,4.2,3,7.1,3C195.5,75.2,197.9,74.2,199.8,72.2z"/>
				<path class="st2" d="M249.3,41.2c2.7-1.1,5.8-1.6,9.3-1.6v14.9c-1.5-0.2-2.8-0.3-3.7-0.3c-3.5,0-6.3,1-8.3,2.9
					c-2,1.9-3,4.8-3,8.8v21.7h-16.5V40.4h15.8v5.7C244.4,43.9,246.6,42.3,249.3,41.2z"/>
				<path class="st2" d="M274.9,85.2c-4.1-2.1-7.2-5-9.5-8.7c-2.3-3.7-3.4-7.9-3.4-12.6c0-4.6,1.1-8.8,3.4-12.5
					c2.3-3.7,5.5-6.6,9.5-8.7c4-2.1,8.6-3.1,13.7-3.1c5.1,0,9.7,1,13.7,3.1c4.1,2.1,7.2,4.9,9.5,8.6c2.3,3.7,3.4,7.9,3.4,12.6
					c0,4.7-1.1,8.9-3.4,12.6c-2.3,3.7-5.4,6.6-9.5,8.7c-4.1,2.1-8.6,3.1-13.7,3.1C283.5,88.4,278.9,87.3,274.9,85.2z M295.7,72.2
					c1.9-2,2.8-4.8,2.8-8.3c0-3.5-0.9-6.2-2.8-8.2c-1.9-2-4.2-3-7.1-3c-2.9,0-5.3,1-7.1,3c-1.9,2-2.8,4.7-2.8,8.2
					c0,3.5,0.9,6.3,2.8,8.3c1.9,2,4.2,3,7.1,3C291.4,75.2,293.8,74.2,295.7,72.2z"/>
			</g>
			<g>
				<path class="st2" d="M311.8,43.8c-0.3-0.1-0.5-0.2-0.7-0.4l0.3-0.6c0.2,0.1,0.4,0.2,0.6,0.3s0.5,0.1,0.8,0.1
					c0.3,0,0.5,0,0.7-0.1c0.2-0.1,0.2-0.2,0.2-0.4c0-0.1,0-0.2-0.1-0.3s-0.2-0.1-0.3-0.2c-0.1,0-0.3-0.1-0.5-0.2
					c-0.3-0.1-0.6-0.2-0.8-0.2c-0.2-0.1-0.4-0.2-0.5-0.4c-0.1-0.2-0.2-0.4-0.2-0.7c0-0.2,0.1-0.4,0.2-0.6c0.1-0.2,0.3-0.3,0.6-0.5
					s0.6-0.2,0.9-0.2c0.3,0,0.5,0,0.8,0.1c0.2,0.1,0.5,0.2,0.6,0.3l-0.2,0.6c-0.2-0.1-0.4-0.2-0.6-0.2c-0.2-0.1-0.4-0.1-0.6-0.1
					c-0.3,0-0.5,0.1-0.7,0.2c-0.1,0.1-0.2,0.2-0.2,0.4c0,0.1,0,0.2,0.1,0.3c0.1,0.1,0.2,0.1,0.3,0.2c0.1,0,0.3,0.1,0.5,0.1
					c0.3,0.1,0.6,0.1,0.8,0.2c0.2,0.1,0.4,0.2,0.5,0.4s0.2,0.4,0.2,0.6c0,0.2-0.1,0.4-0.2,0.6c-0.1,0.2-0.3,0.3-0.6,0.5
					c-0.3,0.1-0.6,0.2-0.9,0.2C312.4,43.9,312.1,43.9,311.8,43.8z"/>
				<path class="st2" d="M319,43.8l0-2.8l-1.4,2.3h-0.3l-1.4-2.3v2.7h-0.7v-4.2h0.6l1.7,2.8l1.6-2.8h0.6l0,4.2H319z"/>
			</g>
		</g>
	</g>
</g>
</svg>
